<?xml version="1.0" encoding="UTF-8" standalone="no"?><svg xmlns="http://www.w3.org/2000/svg" xmlns:xlink="http://www.w3.org/1999/xlink" contentScriptType="application/ecmascript" contentStyleType="text/css" height="2239px" preserveAspectRatio="none" style="width:1687px;height:2239px;" version="1.1" viewBox="0 0 1687 2239" width="1687px" zoomAndPan="magnify"><defs/><g><text fill="#000000" font-family="DejaVu Sans" font-size="14" font-weight="bold" lengthAdjust="spacingAndGlyphs" textLength="132" x="773" y="22.9951">RetailMax — CRM</text><text fill="#000000" font-family="DejaVu Sans" font-size="14" font-weight="bold" lengthAdjust="spacingAndGlyphs" textLength="244" x="717" y="39.292">UML Sequence Diagram (AS-IS)</text><text fill="#000000" font-family="DejaVu Sans" font-size="14" font-weight="bold" lengthAdjust="spacingAndGlyphs" textLength="490" x="594" y="55.5889">Применение и начисление бонусов при оффлайн-продаже</text><rect fill="#F3F6FA" height="2161.6328" style="stroke: #A80036; stroke-width: 1.0;" width="440.5" x="977.5" y="66.8906"/><text fill="#000000" font-family="DejaVu Sans" font-size="13" font-weight="bold" lengthAdjust="spacingAndGlyphs" textLength="86" x="1154.75" y="78.9575">CRM (IS-02)</text><rect fill="#FFFFFF" height="634.8594" style="stroke: #A80036; stroke-width: 1.0;" width="10" x="556" y="492.9453"/><rect fill="#FFFFFF" height="590.5938" style="stroke: #A80036; stroke-width: 1.0;" width="10" x="820" y="537.2109"/><rect fill="#FFFFFF" height="673.125" style="stroke: #000000; stroke-width: 2.0;" width="1226" x="13" y="454.6797"/><rect fill="#FFFFFF" height="466.0625" style="stroke: #000000; stroke-width: 2.0;" width="1206" x="23" y="654.7422"/><rect fill="#FFFFFF" height="303.2656" style="stroke: none; stroke-width: 1.0;" width="1206" x="23" y="817.5391"/><rect fill="#FFFFFF" height="197.7344" style="stroke: #000000; stroke-width: 2.0;" width="924" x="741" y="1372.7344"/><rect fill="#FFFFFF" height="109.3359" style="stroke: none; stroke-width: 1.0;" width="924" x="741" y="1461.1328"/><rect fill="#FFFFFF" height="419.9297" style="stroke: #000000; stroke-width: 2.0;" width="922.5" x="511.5" y="1627.6016"/><rect fill="#FFFFFF" height="300.2656" style="stroke: #000000; stroke-width: 2.0;" width="902.5" x="521.5" y="1740.2656"/><rect fill="#FFFFFF" height="124.4688" style="stroke: none; stroke-width: 1.0;" width="902.5" x="521.5" y="1916.0625"/><line style="stroke: #A80036; stroke-width: 1.0; stroke-dasharray: 5.0,5.0;" x1="79" x2="79" y1="161.4844" y2="2129.9297"/><line style="stroke: #A80036; stroke-width: 1.0; stroke-dasharray: 5.0,5.0;" x1="317.5" x2="317.5" y1="161.4844" y2="2129.9297"/><line style="stroke: #A80036; stroke-width: 1.0; stroke-dasharray: 5.0,5.0;" x1="560.5" x2="560.5" y1="161.4844" y2="2129.9297"/><line style="stroke: #A80036; stroke-width: 1.0; stroke-dasharray: 5.0,5.0;" x1="825" x2="825" y1="161.4844" y2="2129.9297"/><line style="stroke: #A80036; stroke-width: 1.0; stroke-dasharray: 5.0,5.0;" x1="1033.5" x2="1033.5" y1="161.4844" y2="2129.9297"/><line style="stroke: #A80036; stroke-width: 1.0; stroke-dasharray: 5.0,5.0;" x1="1132.5" x2="1132.5" y1="161.4844" y2="2129.9297"/><line style="stroke: #A80036; stroke-width: 1.0; stroke-dasharray: 5.0,5.0;" x1="1374" x2="1374" y1="161.4844" y2="2129.9297"/><line style="stroke: #A80036; stroke-width: 1.0; stroke-dasharray: 5.0,5.0;" x1="1453" x2="1453" y1="161.4844" y2="2129.9297"/><text fill="#000000" font-family="DejaVu Sans" font-size="14" lengthAdjust="spacingAndGlyphs" textLength="86" x="33" y="158.1826">Покупатель</text><ellipse cx="79" cy="92.1875" fill="#FEFECE" rx="8" ry="8" style="stroke: #A80036; stroke-width: 2.0;"/><path d="M79,100.1875 L79,127.1875 M66,108.1875 L92,108.1875 M79,127.1875 L66,142.1875 M79,127.1875 L92,142.1875 " fill="none" style="stroke: #A80036; stroke-width: 2.0;"/><text fill="#000000" font-family="DejaVu Sans" font-size="14" lengthAdjust="spacingAndGlyphs" textLength="86" x="33" y="2141.9248">Покупатель</text><ellipse cx="79" cy="2155.2266" fill="#FEFECE" rx="8" ry="8" style="stroke: #A80036; stroke-width: 2.0;"/><path d="M79,2163.2266 L79,2190.2266 M66,2171.2266 L92,2171.2266 M79,2190.2266 L66,2205.2266 M79,2190.2266 L92,2205.2266 " fill="none" style="stroke: #A80036; stroke-width: 2.0;"/><text fill="#000000" font-family="DejaVu Sans" font-size="14" lengthAdjust="spacingAndGlyphs" textLength="143" x="243.5" y="141.8857">Старший продавец</text><text fill="#000000" font-family="DejaVu Sans" font-size="14" lengthAdjust="spacingAndGlyphs" textLength="67" x="281.5" y="158.1826">магазина</text><ellipse cx="318" cy="75.8906" fill="#FEFECE" rx="8" ry="8" style="stroke: #A80036; stroke-width: 2.0;"/><path d="M318,83.8906 L318,110.8906 M305,91.8906 L331,91.8906 M318,110.8906 L305,125.8906 M318,110.8906 L331,125.8906 " fill="none" style="stroke: #A80036; stroke-width: 2.0;"/><text fill="#000000" font-family="DejaVu Sans" font-size="14" lengthAdjust="spacingAndGlyphs" textLength="143" x="243.5" y="2141.9248">Старший продавец</text><text fill="#000000" font-family="DejaVu Sans" font-size="14" lengthAdjust="spacingAndGlyphs" textLength="67" x="281.5" y="2158.2217">магазина</text><ellipse cx="318" cy="2171.5234" fill="#FEFECE" rx="8" ry="8" style="stroke: #A80036; stroke-width: 2.0;"/><path d="M318,2179.5234 L318,2206.5234 M305,2187.5234 L331,2187.5234 M318,2206.5234 L305,2221.5234 M318,2206.5234 L331,2221.5234 " fill="none" style="stroke: #A80036; stroke-width: 2.0;"/><rect fill="#FEFECE" height="46.5938" style="stroke: #A80036; stroke-width: 1.5;" width="59" x="531.5" y="113.8906"/><text fill="#000000" font-family="DejaVu Sans" font-size="14" lengthAdjust="spacingAndGlyphs" textLength="29" x="546.5" y="133.8857">POS</text><text fill="#000000" font-family="DejaVu Sans" font-size="14" lengthAdjust="spacingAndGlyphs" textLength="45" x="538.5" y="150.1826">(IS-04)</text><rect fill="#FEFECE" height="46.5938" style="stroke: #A80036; stroke-width: 1.5;" width="59" x="531.5" y="2128.9297"/><text fill="#000000" font-family="DejaVu Sans" font-size="14" lengthAdjust="spacingAndGlyphs" textLength="29" x="546.5" y="2148.9248">POS</text><text fill="#000000" font-family="DejaVu Sans" font-size="14" lengthAdjust="spacingAndGlyphs" textLength="45" x="538.5" y="2165.2217">(IS-04)</text><rect fill="#FEFECE" height="46.5938" style="stroke: #A80036; stroke-width: 1.5;" width="148" x="751" y="113.8906"/><text fill="#000000" font-family="DejaVu Sans" font-size="14" lengthAdjust="spacingAndGlyphs" textLength="134" x="758" y="133.8857">Integration Platform</text><text fill="#000000" font-family="DejaVu Sans" font-size="14" lengthAdjust="spacingAndGlyphs" textLength="45" x="802.5" y="150.1826">(IS-07)</text><rect fill="#FEFECE" height="46.5938" style="stroke: #A80036; stroke-width: 1.5;" width="148" x="751" y="2128.9297"/><text fill="#000000" font-family="DejaVu Sans" font-size="14" lengthAdjust="spacingAndGlyphs" textLength="134" x="758" y="2148.9248">Integration Platform</text><text fill="#000000" font-family="DejaVu Sans" font-size="14" lengthAdjust="spacingAndGlyphs" textLength="45" x="802.5" y="2165.2217">(IS-07)</text><rect fill="#FEFECE" height="46.5938" style="stroke: #A80036; stroke-width: 1.5;" width="105" x="981.5" y="113.8906"/><text fill="#000000" font-family="DejaVu Sans" font-size="14" lengthAdjust="spacingAndGlyphs" textLength="68" x="1000" y="133.8857">Customer</text><text fill="#000000" font-family="DejaVu Sans" font-size="14" lengthAdjust="spacingAndGlyphs" textLength="91" x="988.5" y="150.1826">Management</text><rect fill="#FEFECE" height="46.5938" style="stroke: #A80036; stroke-width: 1.5;" width="105" x="981.5" y="2128.9297"/><text fill="#000000" font-family="DejaVu Sans" font-size="14" lengthAdjust="spacingAndGlyphs" textLength="68" x="1000" y="2148.9248">Customer</text><text fill="#000000" font-family="DejaVu Sans" font-size="14" lengthAdjust="spacingAndGlyphs" textLength="91" x="988.5" y="2165.2217">Management</text><rect fill="#FEFECE" height="46.5938" style="stroke: #A80036; stroke-width: 1.5;" width="72" x="1096.5" y="113.8906"/><text fill="#000000" font-family="DejaVu Sans" font-size="14" lengthAdjust="spacingAndGlyphs" textLength="46" x="1109.5" y="133.8857">Loyalty</text><text fill="#000000" font-family="DejaVu Sans" font-size="14" lengthAdjust="spacingAndGlyphs" textLength="58" x="1103.5" y="150.1826">Program</text><rect fill="#FEFECE" height="46.5938" style="stroke: #A80036; stroke-width: 1.5;" width="72" x="1096.5" y="2128.9297"/><text fill="#000000" font-family="DejaVu Sans" font-size="14" lengthAdjust="spacingAndGlyphs" textLength="46" x="1109.5" y="2148.9248">Loyalty</text><text fill="#000000" font-family="DejaVu Sans" font-size="14" lengthAdjust="spacingAndGlyphs" textLength="58" x="1103.5" y="2165.2217">Program</text><rect fill="#FEFECE" height="46.5938" style="stroke: #A80036; stroke-width: 1.5;" width="79" x="1335" y="113.8906"/><text fill="#000000" font-family="DejaVu Sans" font-size="14" lengthAdjust="spacingAndGlyphs" textLength="65" x="1342" y="133.8857">Purchase</text><text fill="#000000" font-family="DejaVu Sans" font-size="14" lengthAdjust="spacingAndGlyphs" textLength="47" x="1351" y="150.1826">History</text><rect fill="#FEFECE" height="46.5938" style="stroke: #A80036; stroke-width: 1.5;" width="79" x="1335" y="2128.9297"/><text fill="#000000" font-family="DejaVu Sans" font-size="14" lengthAdjust="spacingAndGlyphs" textLength="65" x="1342" y="2148.9248">Purchase</text><text fill="#000000" font-family="DejaVu Sans" font-size="14" lengthAdjust="spacingAndGlyphs" textLength="47" x="1351" y="2165.2217">History</text><rect fill="#FEFECE" height="46.5938" style="stroke: #A80036; stroke-width: 1.5;" width="59" x="1424" y="113.8906"/><text fill="#000000" font-family="DejaVu Sans" font-size="14" lengthAdjust="spacingAndGlyphs" textLength="28" x="1439.5" y="133.8857">ERP</text><text fill="#000000" font-family="DejaVu Sans" font-size="14" lengthAdjust="spacingAndGlyphs" textLength="45" x="1431" y="150.1826">(IS-01)</text><rect fill="#FEFECE" height="46.5938" style="stroke: #A80036; stroke-width: 1.5;" width="59" x="1424" y="2128.9297"/><text fill="#000000" font-family="DejaVu Sans" font-size="14" lengthAdjust="spacingAndGlyphs" textLength="28" x="1439.5" y="2148.9248">ERP</text><text fill="#000000" font-family="DejaVu Sans" font-size="14" lengthAdjust="spacingAndGlyphs" textLength="45" x="1431" y="2165.2217">(IS-01)</text><rect fill="#FFFFFF" height="634.8594" style="stroke: #A80036; stroke-width: 1.0;" width="10" x="556" y="492.9453"/><rect fill="#FFFFFF" height="590.5938" style="stroke: #A80036; stroke-width: 1.0;" width="10" x="820" y="537.2109"/><rect fill="#EEEEEE" height="3" style="stroke: #EEEEEE; stroke-width: 1.0;" width="1672" x="3" y="192.0508"/><line style="stroke: #000000; stroke-width: 1.0;" x1="3" x2="1675" y1="192.0508" y2="192.0508"/><line style="stroke: #000000; stroke-width: 1.0;" x1="3" x2="1675" y1="195.0508" y2="195.0508"/><rect fill="#EEEEEE" height="23.1328" style="stroke: #000000; stroke-width: 2.0;" width="194" x="742" y="181.4844"/><text fill="#000000" font-family="DejaVu Sans" font-size="13" font-weight="bold" lengthAdjust="spacingAndGlyphs" textLength="175" x="748" y="197.5513">Сканирование товаров</text><polygon fill="#A80036" points="306,246.8828,316,250.8828,306,254.8828,310,250.8828" style="stroke: #A80036; stroke-width: 1.0;"/><line style="stroke: #A80036; stroke-width: 1.0;" x1="79" x2="312" y1="250.8828" y2="250.8828"/><text fill="#000000" font-family="DejaVu Sans" font-size="13" font-weight="bold" lengthAdjust="spacingAndGlyphs" textLength="9" x="101" y="238.2505">1</text><text fill="#000000" font-family="DejaVu Sans" font-size="13" lengthAdjust="spacingAndGlyphs" textLength="178" x="114" y="230.6841">передает товары и карту</text><text fill="#000000" font-family="DejaVu Sans" font-size="13" lengthAdjust="spacingAndGlyphs" textLength="80" x="165" y="245.8169">лояльности</text><polygon fill="#A80036" points="549,276.0156,559,280.0156,549,284.0156,553,280.0156" style="stroke: #A80036; stroke-width: 1.0;"/><line style="stroke: #A80036; stroke-width: 1.0;" x1="318" x2="555" y1="280.0156" y2="280.0156"/><text fill="#000000" font-family="DejaVu Sans" font-size="13" font-weight="bold" lengthAdjust="spacingAndGlyphs" textLength="9" x="370" y="274.9497">2</text><text fill="#000000" font-family="DejaVu Sans" font-size="13" lengthAdjust="spacingAndGlyphs" textLength="126" x="383" y="274.9497">сканирует товары</text><polygon fill="#A80036" points="813,305.1484,823,309.1484,813,313.1484,817,309.1484" style="stroke: #A80036; stroke-width: 1.0;"/><line style="stroke: #A80036; stroke-width: 1.0;" x1="561" x2="819" y1="309.1484" y2="309.1484"/><text fill="#000000" font-family="DejaVu Sans" font-size="13" font-weight="bold" lengthAdjust="spacingAndGlyphs" textLength="9" x="615.5" y="304.0825">3</text><text fill="#000000" font-family="DejaVu Sans" font-size="13" lengthAdjust="spacingAndGlyphs" textLength="142" x="628.5" y="304.0825">запрос цены и акций</text><polygon fill="#A80036" points="1441.5,334.2813,1451.5,338.2813,1441.5,342.2813,1445.5,338.2813" style="stroke: #A80036; stroke-width: 1.0;"/><line style="stroke: #A80036; stroke-width: 1.0;" x1="825" x2="1447.5" y1="338.2813" y2="338.2813"/><text fill="#000000" font-family="DejaVu Sans" font-size="13" font-weight="bold" lengthAdjust="spacingAndGlyphs" textLength="9" x="1090.25" y="333.2153">4</text><text fill="#000000" font-family="DejaVu Sans" font-size="13" lengthAdjust="spacingAndGlyphs" textLength="85" x="1103.25" y="333.2153">запрос цены</text><polygon fill="#A80036" points="836,346.2813,826,350.2813,836,354.2813,832,350.2813" style="stroke: #A80036; stroke-width: 1.0;"/><line style="stroke: #A80036; stroke-width: 1.0; stroke-dasharray: 2.0,2.0;" x1="830" x2="1452.5" y1="350.2813" y2="350.2813"/><text fill="#000000" font-family="DejaVu Sans" font-size="13" font-weight="bold" lengthAdjust="spacingAndGlyphs" textLength="9" x="1116.25" y="363.3481">5</text><text fill="#000000" font-family="DejaVu Sans" font-size="13" lengthAdjust="spacingAndGlyphs" textLength="33" x="1129.25" y="363.3481">цена</text><polygon fill="#A80036" points="572,375.4141,562,379.4141,572,383.4141,568,379.4141" style="stroke: #A80036; stroke-width: 1.0;"/><line style="stroke: #A80036; stroke-width: 1.0; stroke-dasharray: 2.0,2.0;" x1="566" x2="824" y1="379.4141" y2="379.4141"/><text fill="#000000" font-family="DejaVu Sans" font-size="13" font-weight="bold" lengthAdjust="spacingAndGlyphs" textLength="9" x="591.5" y="392.481">6</text><text fill="#000000" font-family="DejaVu Sans" font-size="13" lengthAdjust="spacingAndGlyphs" textLength="190" x="604.5" y="392.481">цена и действующие акции</text><rect fill="#EEEEEE" height="3" style="stroke: #EEEEEE; stroke-width: 1.0;" width="1672" x="3" y="425.1133"/><line style="stroke: #000000; stroke-width: 1.0;" x1="3" x2="1675" y1="425.1133" y2="425.1133"/><line style="stroke: #000000; stroke-width: 1.0;" x1="3" x2="1675" y1="428.1133" y2="428.1133"/><rect fill="#EEEEEE" height="23.1328" style="stroke: #000000; stroke-width: 2.0;" width="393" x="642.5" y="414.5469"/><text fill="#000000" font-family="DejaVu Sans" font-size="13" font-weight="bold" lengthAdjust="spacingAndGlyphs" textLength="374" x="648.5" y="430.6138">Проверка карты лояльности (синхронно, INT-02)</text><path d="M13,454.6797 L83,454.6797 L83,461.6797 L73,471.6797 L13,471.6797 L13,454.6797 " fill="#EEEEEE" style="stroke: #000000; stroke-width: 1.0;"/><rect fill="none" height="673.125" style="stroke: #000000; stroke-width: 2.0;" width="1226" x="13" y="454.6797"/><text fill="#000000" font-family="DejaVu Sans" font-size="13" font-weight="bold" lengthAdjust="spacingAndGlyphs" textLength="25" x="28" y="467.7466">opt</text><text fill="#000000" font-family="DejaVu Sans" font-size="11" font-weight="bold" lengthAdjust="spacingAndGlyphs" textLength="158" x="98" y="466.8901">[есть карта лояльности]</text><polygon fill="#A80036" points="544,488.9453,554,492.9453,544,496.9453,548,492.9453" style="stroke: #A80036; stroke-width: 1.0;"/><line style="stroke: #A80036; stroke-width: 1.0;" x1="318" x2="550" y1="492.9453" y2="492.9453"/><text fill="#000000" font-family="DejaVu Sans" font-size="13" font-weight="bold" lengthAdjust="spacingAndGlyphs" textLength="9" x="373" y="487.8794">7</text><text fill="#000000" font-family="DejaVu Sans" font-size="13" lengthAdjust="spacingAndGlyphs" textLength="115" x="386" y="487.8794">сканирует карту</text><polygon fill="#A80036" points="808,533.2109,818,537.2109,808,541.2109,812,537.2109" style="stroke: #A80036; stroke-width: 1.0;"/><line style="stroke: #A80036; stroke-width: 1.0;" x1="566" x2="814" y1="537.2109" y2="537.2109"/><text fill="#000000" font-family="DejaVu Sans" font-size="13" font-weight="bold" lengthAdjust="spacingAndGlyphs" textLength="9" x="602" y="524.5786">8</text><text fill="#000000" font-family="DejaVu Sans" font-size="13" lengthAdjust="spacingAndGlyphs" textLength="169" x="615" y="517.0122">запрос бонусов и скидок</text><text fill="#000000" font-family="DejaVu Sans" font-size="13" lengthAdjust="spacingAndGlyphs" textLength="138" x="630.5" y="532.145">(номер карты), REST</text><polygon fill="#A80036" points="1022,562.3438,1032,566.3438,1022,570.3438,1026,566.3438" style="stroke: #A80036; stroke-width: 1.0;"/><line style="stroke: #A80036; stroke-width: 1.0;" x1="830" x2="1028" y1="566.3438" y2="566.3438"/><text fill="#000000" font-family="DejaVu Sans" font-size="13" font-weight="bold" lengthAdjust="spacingAndGlyphs" textLength="9" x="842" y="561.2778">9</text><text fill="#000000" font-family="DejaVu Sans" font-size="13" lengthAdjust="spacingAndGlyphs" textLength="167" x="855" y="561.2778">найти клиента по карте</text><polygon fill="#A80036" points="841,574.3438,831,578.3438,841,582.3438,837,578.3438" style="stroke: #A80036; stroke-width: 1.0;"/><line style="stroke: #A80036; stroke-width: 1.0; stroke-dasharray: 2.0,2.0;" x1="835" x2="1033" y1="578.3438" y2="578.3438"/><text fill="#000000" font-family="DejaVu Sans" font-size="13" font-weight="bold" lengthAdjust="spacingAndGlyphs" textLength="18" x="864.5" y="591.4106">10</text><text fill="#000000" font-family="DejaVu Sans" font-size="13" lengthAdjust="spacingAndGlyphs" textLength="113" x="886.5" y="591.4106">данные клиента</text><polygon fill="#A80036" points="1120.5,635.7422,1130.5,639.7422,1120.5,643.7422,1124.5,639.7422" style="stroke: #A80036; stroke-width: 1.0;"/><line style="stroke: #A80036; stroke-width: 1.0;" x1="830" x2="1126.5" y1="639.7422" y2="639.7422"/><text fill="#000000" font-family="DejaVu Sans" font-size="13" font-weight="bold" lengthAdjust="spacingAndGlyphs" textLength="18" x="890.25" y="627.1099">11</text><text fill="#000000" font-family="DejaVu Sans" font-size="13" lengthAdjust="spacingAndGlyphs" textLength="105" x="939.75" y="619.5435">запрос баланса</text><text fill="#000000" font-family="DejaVu Sans" font-size="13" lengthAdjust="spacingAndGlyphs" textLength="160" x="912.25" y="634.6763">и персональной скидки</text><path d="M23,654.7422 L87,654.7422 L87,661.7422 L77,671.7422 L23,671.7422 L23,654.7422 " fill="#EEEEEE" style="stroke: #000000; stroke-width: 1.0;"/><rect fill="none" height="466.0625" style="stroke: #000000; stroke-width: 2.0;" width="1206" x="23" y="654.7422"/><text fill="#000000" font-family="DejaVu Sans" font-size="13" font-weight="bold" lengthAdjust="spacingAndGlyphs" textLength="19" x="38" y="667.8091">alt</text><text fill="#000000" font-family="DejaVu Sans" font-size="11" font-weight="bold" lengthAdjust="spacingAndGlyphs" textLength="101" x="102" y="666.9526">[CRM ответила]</text><polygon fill="#A80036" points="841,671.875,831,675.875,841,679.875,837,675.875" style="stroke: #A80036; stroke-width: 1.0;"/><line style="stroke: #A80036; stroke-width: 1.0; stroke-dasharray: 2.0,2.0;" x1="835" x2="1131.5" y1="675.875" y2="675.875"/><text fill="#000000" font-family="DejaVu Sans" font-size="13" font-weight="bold" lengthAdjust="spacingAndGlyphs" textLength="18" x="889.25" y="688.9419">12</text><text fill="#000000" font-family="DejaVu Sans" font-size="13" lengthAdjust="spacingAndGlyphs" textLength="162" x="911.25" y="688.9419">баланс бонусов, скидка</text><polygon fill="#A80036" points="577,701.0078,567,705.0078,577,709.0078,573,705.0078" style="stroke: #A80036; stroke-width: 1.0;"/><line style="stroke: #A80036; stroke-width: 1.0; stroke-dasharray: 2.0,2.0;" x1="571" x2="819" y1="705.0078" y2="705.0078"/><text fill="#000000" font-family="DejaVu Sans" font-size="13" font-weight="bold" lengthAdjust="spacingAndGlyphs" textLength="18" x="601" y="718.0747">13</text><text fill="#000000" font-family="DejaVu Sans" font-size="13" lengthAdjust="spacingAndGlyphs" textLength="162" x="623" y="718.0747">баланс бонусов, скидка</text><polygon fill="#A80036" points="329,730.1406,319,734.1406,329,738.1406,325,734.1406" style="stroke: #A80036; stroke-width: 1.0;"/><line style="stroke: #A80036; stroke-width: 1.0; stroke-dasharray: 2.0,2.0;" x1="323" x2="555" y1="734.1406" y2="734.1406"/><text fill="#000000" font-family="DejaVu Sans" font-size="13" font-weight="bold" lengthAdjust="spacingAndGlyphs" textLength="18" x="330" y="747.2075">14</text><text fill="#000000" font-family="DejaVu Sans" font-size="13" lengthAdjust="spacingAndGlyphs" textLength="192" x="352" y="747.2075">скидка и доступные бонусы</text><polygon fill="#A80036" points="90,759.2734,80,763.2734,90,767.2734,86,763.2734" style="stroke: #A80036; stroke-width: 1.0;"/><line style="stroke: #A80036; stroke-width: 1.0;" x1="84" x2="317" y1="763.2734" y2="763.2734"/><text fill="#000000" font-family="DejaVu Sans" font-size="13" font-weight="bold" lengthAdjust="spacingAndGlyphs" textLength="18" x="91" y="776.3403">15</text><text fill="#000000" font-family="DejaVu Sans" font-size="13" lengthAdjust="spacingAndGlyphs" textLength="193" x="113" y="776.3403">предлагает списать бонусы</text><polygon fill="#A80036" points="306,805.5391,316,809.5391,306,813.5391,310,809.5391" style="stroke: #A80036; stroke-width: 1.0;"/><line style="stroke: #A80036; stroke-width: 1.0; stroke-dasharray: 2.0,2.0;" x1="79" x2="312" y1="809.5391" y2="809.5391"/><text fill="#000000" font-family="DejaVu Sans" font-size="13" font-weight="bold" lengthAdjust="spacingAndGlyphs" textLength="18" x="121" y="804.4731">16</text><text fill="#000000" font-family="DejaVu Sans" font-size="13" lengthAdjust="spacingAndGlyphs" textLength="133" x="143" y="804.4731">согласие или отказ</text><line style="stroke: #000000; stroke-width: 1.0; stroke-dasharray: 2.0,2.0;" x1="23" x2="1229" y1="818.5391" y2="818.5391"/><text fill="#000000" font-family="DejaVu Sans" font-size="11" font-weight="bold" lengthAdjust="spacingAndGlyphs" textLength="280" x="28" y="828.7495">[CRM недоступна или отвечает медленно]</text><path d="M1045,837.3438 L1045,877.3438 L1219,877.3438 L1219,847.3438 L1209,837.3438 L1045,837.3438 " fill="#FBFB77" style="stroke: #A80036; stroke-width: 1.0;"/><path d="M1209,837.3438 L1209,847.3438 L1219,847.3438 L1209,837.3438 " fill="#FBFB77" style="stroke: #A80036; stroke-width: 1.0;"/><text fill="#000000" font-family="DejaVu Sans" font-size="13" lengthAdjust="spacingAndGlyphs" textLength="153" x="1051" y="854.4106">Ответа нет. Таймаута</text><text fill="#000000" font-family="DejaVu Sans" font-size="13" lengthAdjust="spacingAndGlyphs" textLength="137" x="1051" y="869.5435">и кэша на кассе нет</text><line style="stroke: #A80036; stroke-width: 1.0;" x1="318" x2="360" y1="903.7422" y2="903.7422"/><line style="stroke: #A80036; stroke-width: 1.0;" x1="360" x2="360" y1="903.7422" y2="916.7422"/><line style="stroke: #A80036; stroke-width: 1.0;" x1="319" x2="360" y1="916.7422" y2="916.7422"/><polygon fill="#A80036" points="329,912.7422,319,916.7422,329,920.7422,325,916.7422" style="stroke: #A80036; stroke-width: 1.0;"/><text fill="#000000" font-family="DejaVu Sans" font-size="13" font-weight="bold" lengthAdjust="spacingAndGlyphs" textLength="18" x="325" y="898.6763">17</text><text fill="#000000" font-family="DejaVu Sans" font-size="13" lengthAdjust="spacingAndGlyphs" textLength="93" x="347" y="898.6763">ждет ответа</text><line style="stroke: #A80036; stroke-width: 1.0;" x1="79" x2="121" y1="945.875" y2="945.875"/><line style="stroke: #A80036; stroke-width: 1.0;" x1="121" x2="121" y1="945.875" y2="958.875"/><line style="stroke: #A80036; stroke-width: 1.0;" x1="80" x2="121" y1="958.875" y2="958.875"/><polygon fill="#A80036" points="90,954.875,80,958.875,90,962.875,86,958.875" style="stroke: #A80036; stroke-width: 1.0;"/><text fill="#000000" font-family="DejaVu Sans" font-size="13" font-weight="bold" lengthAdjust="spacingAndGlyphs" textLength="18" x="86" y="940.8091">18</text><text fill="#000000" font-family="DejaVu Sans" font-size="13" lengthAdjust="spacingAndGlyphs" textLength="94" x="108" y="940.8091">ждет у кассы</text><polygon fill="#A80036" points="577,966.875,567,970.875,577,974.875,573,970.875" style="stroke: #A80036; stroke-width: 1.0;"/><line style="stroke: #A80036; stroke-width: 1.0; stroke-dasharray: 2.0,2.0;" x1="571" x2="819" y1="970.875" y2="970.875"/><text fill="#000000" font-family="DejaVu Sans" font-size="13" font-weight="bold" lengthAdjust="spacingAndGlyphs" textLength="18" x="656.5" y="983.9419">19</text><text fill="#000000" font-family="DejaVu Sans" font-size="13" lengthAdjust="spacingAndGlyphs" textLength="51" x="678.5" y="983.9419">ошибка</text><polygon fill="#A80036" points="329,996.0078,319,1000.0078,329,1004.0078,325,1000.0078" style="stroke: #A80036; stroke-width: 1.0;"/><line style="stroke: #A80036; stroke-width: 1.0; stroke-dasharray: 2.0,2.0;" x1="323" x2="555" y1="1000.0078" y2="1000.0078"/><text fill="#000000" font-family="DejaVu Sans" font-size="13" font-weight="bold" lengthAdjust="spacingAndGlyphs" textLength="18" x="358.5" y="1013.0747">20</text><text fill="#000000" font-family="DejaVu Sans" font-size="13" lengthAdjust="spacingAndGlyphs" textLength="135" x="380.5" y="1013.0747">бонусы недоступны</text><path d="M571,1030.1406 L571,1115.1406 L818,1115.1406 L818,1040.1406 L808,1030.1406 L571,1030.1406 " fill="#FBFB77" style="stroke: #A80036; stroke-width: 1.0;"/><path d="M808,1030.1406 L808,1040.1406 L818,1040.1406 L808,1030.1406 " fill="#FBFB77" style="stroke: #A80036; stroke-width: 1.0;"/><text fill="#000000" font-family="DejaVu Sans" font-size="13" lengthAdjust="spacingAndGlyphs" textLength="210" x="577" y="1047.2075">Проблема AS-IS (INT-02, BP-01).</text><text fill="#000000" font-family="DejaVu Sans" font-size="13" lengthAdjust="spacingAndGlyphs" textLength="226" x="577" y="1062.3403">Продажа стоит, пока ждут CRM,</text><text fill="#000000" font-family="DejaVu Sans" font-size="13" lengthAdjust="spacingAndGlyphs" textLength="200" x="577" y="1077.4731">время обслуживания растет.</text><text fill="#000000" font-family="DejaVu Sans" font-size="13" lengthAdjust="spacingAndGlyphs" textLength="216" x="577" y="1092.606">Если CRM не ответила, покупка</text><text fill="#000000" font-family="DejaVu Sans" font-size="13" lengthAdjust="spacingAndGlyphs" textLength="151" x="577" y="1107.7388">проходит без бонусов</text><rect fill="#EEEEEE" height="3" style="stroke: #EEEEEE; stroke-width: 1.0;" width="1672" x="3" y="1155.3711"/><line style="stroke: #000000; stroke-width: 1.0;" x1="3" x2="1675" y1="1155.3711" y2="1155.3711"/><line style="stroke: #000000; stroke-width: 1.0;" x1="3" x2="1675" y1="1158.3711" y2="1158.3711"/><rect fill="#EEEEEE" height="23.1328" style="stroke: #000000; stroke-width: 2.0;" width="244" x="717" y="1144.8047"/><text fill="#000000" font-family="DejaVu Sans" font-size="13" font-weight="bold" lengthAdjust="spacingAndGlyphs" textLength="225" x="723" y="1160.8716">Оплата и фиксация продажи</text><polygon fill="#A80036" points="306,1195.0703,316,1199.0703,306,1203.0703,310,1199.0703" style="stroke: #A80036; stroke-width: 1.0;"/><line style="stroke: #A80036; stroke-width: 1.0;" x1="79" x2="312" y1="1199.0703" y2="1199.0703"/><text fill="#000000" font-family="DejaVu Sans" font-size="13" font-weight="bold" lengthAdjust="spacingAndGlyphs" textLength="18" x="118" y="1194.0044">21</text><text fill="#000000" font-family="DejaVu Sans" font-size="13" lengthAdjust="spacingAndGlyphs" textLength="139" x="140" y="1194.0044">оплачивает покупку</text><polygon fill="#A80036" points="549,1224.2031,559,1228.2031,549,1232.2031,553,1228.2031" style="stroke: #A80036; stroke-width: 1.0;"/><line style="stroke: #A80036; stroke-width: 1.0;" x1="318" x2="555" y1="1228.2031" y2="1228.2031"/><text fill="#000000" font-family="DejaVu Sans" font-size="13" font-weight="bold" lengthAdjust="spacingAndGlyphs" textLength="18" x="385.5" y="1223.1372">22</text><text fill="#000000" font-family="DejaVu Sans" font-size="13" lengthAdjust="spacingAndGlyphs" textLength="86" x="407.5" y="1223.1372">закрыть чек</text><line style="stroke: #A80036; stroke-width: 1.0;" x1="561" x2="603" y1="1257.3359" y2="1257.3359"/><line style="stroke: #A80036; stroke-width: 1.0;" x1="603" x2="603" y1="1257.3359" y2="1270.3359"/><line style="stroke: #A80036; stroke-width: 1.0;" x1="562" x2="603" y1="1270.3359" y2="1270.3359"/><polygon fill="#A80036" points="572,1266.3359,562,1270.3359,572,1274.3359,568,1270.3359" style="stroke: #A80036; stroke-width: 1.0;"/><text fill="#000000" font-family="DejaVu Sans" font-size="13" font-weight="bold" lengthAdjust="spacingAndGlyphs" textLength="18" x="568" y="1252.27">23</text><text fill="#000000" font-family="DejaVu Sans" font-size="13" lengthAdjust="spacingAndGlyphs" textLength="97" x="590" y="1252.27">оформить чек</text><polygon fill="#A80036" points="90,1278.3359,80,1282.3359,90,1286.3359,86,1282.3359" style="stroke: #A80036; stroke-width: 1.0;"/><line style="stroke: #A80036; stroke-width: 1.0; stroke-dasharray: 2.0,2.0;" x1="84" x2="560" y1="1282.3359" y2="1282.3359"/><text fill="#000000" font-family="DejaVu Sans" font-size="13" font-weight="bold" lengthAdjust="spacingAndGlyphs" textLength="18" x="297" y="1295.4028">24</text><text fill="#000000" font-family="DejaVu Sans" font-size="13" lengthAdjust="spacingAndGlyphs" textLength="24" x="319" y="1295.4028">чек</text><polygon fill="#A80036" points="813,1324.6016,823,1328.6016,813,1332.6016,817,1328.6016" style="stroke: #A80036; stroke-width: 1.0;"/><line style="stroke: #A80036; stroke-width: 1.0;" x1="561" x2="819" y1="1328.6016" y2="1328.6016"/><text fill="#000000" font-family="DejaVu Sans" font-size="13" font-weight="bold" lengthAdjust="spacingAndGlyphs" textLength="18" x="611" y="1323.5356">25</text><text fill="#000000" font-family="DejaVu Sans" font-size="13" lengthAdjust="spacingAndGlyphs" textLength="142" x="633" y="1323.5356">факт продажи, REST</text><polygon fill="#A80036" points="1441.5,1353.7344,1451.5,1357.7344,1441.5,1361.7344,1445.5,1357.7344" style="stroke: #A80036; stroke-width: 1.0;"/><line style="stroke: #A80036; stroke-width: 1.0;" x1="825" x2="1447.5" y1="1357.7344" y2="1357.7344"/><text fill="#000000" font-family="DejaVu Sans" font-size="13" font-weight="bold" lengthAdjust="spacingAndGlyphs" textLength="18" x="1049.75" y="1352.6685">26</text><text fill="#000000" font-family="DejaVu Sans" font-size="13" lengthAdjust="spacingAndGlyphs" textLength="157" x="1071.75" y="1352.6685">факт продажи (INT-01)</text><path d="M741,1372.7344 L805,1372.7344 L805,1379.7344 L795,1389.7344 L741,1389.7344 L741,1372.7344 " fill="#EEEEEE" style="stroke: #000000; stroke-width: 1.0;"/><rect fill="none" height="197.7344" style="stroke: #000000; stroke-width: 2.0;" width="924" x="741" y="1372.7344"/><text fill="#000000" font-family="DejaVu Sans" font-size="13" font-weight="bold" lengthAdjust="spacingAndGlyphs" textLength="19" x="756" y="1385.8013">alt</text><text fill="#000000" font-family="DejaVu Sans" font-size="11" font-weight="bold" lengthAdjust="spacingAndGlyphs" textLength="93" x="820" y="1384.9448">[ERP приняла]</text><polygon fill="#A80036" points="836,1389.8672,826,1393.8672,836,1397.8672,832,1393.8672" style="stroke: #A80036; stroke-width: 1.0;"/><line style="stroke: #A80036; stroke-width: 1.0; stroke-dasharray: 2.0,2.0;" x1="830" x2="1452.5" y1="1393.8672" y2="1393.8672"/><text fill="#000000" font-family="DejaVu Sans" font-size="13" font-weight="bold" lengthAdjust="spacingAndGlyphs" textLength="18" x="1120.75" y="1406.9341">27</text><text fill="#000000" font-family="DejaVu Sans" font-size="13" lengthAdjust="spacingAndGlyphs" textLength="15" x="1142.75" y="1406.9341">ok</text><line style="stroke: #A80036; stroke-width: 1.0;" x1="1453.5" x2="1495.5" y1="1440.1328" y2="1440.1328"/><line style="stroke: #A80036; stroke-width: 1.0;" x1="1495.5" x2="1495.5" y1="1440.1328" y2="1453.1328"/><line style="stroke: #A80036; stroke-width: 1.0;" x1="1454.5" x2="1495.5" y1="1453.1328" y2="1453.1328"/><polygon fill="#A80036" points="1464.5,1449.1328,1454.5,1453.1328,1464.5,1457.1328,1460.5,1453.1328" style="stroke: #A80036; stroke-width: 1.0;"/><text fill="#000000" font-family="DejaVu Sans" font-size="13" font-weight="bold" lengthAdjust="spacingAndGlyphs" textLength="18" x="1460.5" y="1435.0669">28</text><text fill="#000000" font-family="DejaVu Sans" font-size="13" lengthAdjust="spacingAndGlyphs" textLength="137" x="1482.5" y="1435.0669">уменьшить остатки</text><line style="stroke: #000000; stroke-width: 1.0; stroke-dasharray: 2.0,2.0;" x1="741" x2="1665" y1="1462.1328" y2="1462.1328"/><text fill="#000000" font-family="DejaVu Sans" font-size="11" font-weight="bold" lengthAdjust="spacingAndGlyphs" textLength="209" x="746" y="1472.3433">[ошибка или высокая нагрузка]</text><polygon fill="#A80036" points="836,1475.9375,826,1479.9375,836,1483.9375,832,1479.9375" style="stroke: #A80036; stroke-width: 1.0;"/><line style="stroke: #A80036; stroke-width: 1.0; stroke-dasharray: 2.0,2.0;" x1="830" x2="1452.5" y1="1479.9375" y2="1479.9375"/><text fill="#000000" font-family="DejaVu Sans" font-size="13" font-weight="bold" lengthAdjust="spacingAndGlyphs" textLength="18" x="1102.75" y="1493.0044">29</text><text fill="#000000" font-family="DejaVu Sans" font-size="13" lengthAdjust="spacingAndGlyphs" textLength="51" x="1124.75" y="1493.0044">ошибка</text><path d="M1458,1510.0703 L1458,1565.0703 L1655,1565.0703 L1655,1520.0703 L1645,1510.0703 L1458,1510.0703 " fill="#FBFB77" style="stroke: #A80036; stroke-width: 1.0;"/><path d="M1645,1510.0703 L1645,1520.0703 L1655,1520.0703 L1645,1510.0703 " fill="#FBFB77" style="stroke: #A80036; stroke-width: 1.0;"/><text fill="#000000" font-family="DejaVu Sans" font-size="13" lengthAdjust="spacingAndGlyphs" textLength="164" x="1464" y="1527.1372">Проблема AS-IS (INT-01).</text><text fill="#000000" font-family="DejaVu Sans" font-size="13" lengthAdjust="spacingAndGlyphs" textLength="176" x="1464" y="1542.27">Повторной отправки нет,</text><text fill="#000000" font-family="DejaVu Sans" font-size="13" lengthAdjust="spacingAndGlyphs" textLength="171" x="1464" y="1557.4028">продажа в ERP теряется</text><rect fill="#EEEEEE" height="3" style="stroke: #EEEEEE; stroke-width: 1.0;" width="1672" x="3" y="1598.0352"/><line style="stroke: #000000; stroke-width: 1.0;" x1="3" x2="1675" y1="1598.0352" y2="1598.0352"/><line style="stroke: #000000; stroke-width: 1.0;" x1="3" x2="1675" y1="1601.0352" y2="1601.0352"/><rect fill="#EEEEEE" height="23.1328" style="stroke: #000000; stroke-width: 2.0;" width="265" x="706.5" y="1587.4688"/><text fill="#000000" font-family="DejaVu Sans" font-size="13" font-weight="bold" lengthAdjust="spacingAndGlyphs" textLength="246" x="712.5" y="1603.5356">Списание и начисление бонусов</text><path d="M511.5,1627.6016 L581.5,1627.6016 L581.5,1634.6016 L571.5,1644.6016 L511.5,1644.6016 L511.5,1627.6016 " fill="#EEEEEE" style="stroke: #000000; stroke-width: 1.0;"/><rect fill="none" height="419.9297" style="stroke: #000000; stroke-width: 2.0;" width="922.5" x="511.5" y="1627.6016"/><text fill="#000000" font-family="DejaVu Sans" font-size="13" font-weight="bold" lengthAdjust="spacingAndGlyphs" textLength="25" x="526.5" y="1640.6685">opt</text><text fill="#000000" font-family="DejaVu Sans" font-size="11" font-weight="bold" lengthAdjust="spacingAndGlyphs" textLength="210" x="596.5" y="1639.812">[продажа по карте лояльности]</text><polygon fill="#A80036" points="813,1692.1328,823,1696.1328,813,1700.1328,817,1696.1328" style="stroke: #A80036; stroke-width: 1.0;"/><line style="stroke: #A80036; stroke-width: 1.0;" x1="561" x2="819" y1="1696.1328" y2="1696.1328"/><text fill="#000000" font-family="DejaVu Sans" font-size="13" font-weight="bold" lengthAdjust="spacingAndGlyphs" textLength="18" x="573" y="1675.9341">30</text><text fill="#000000" font-family="DejaVu Sans" font-size="13" lengthAdjust="spacingAndGlyphs" textLength="127" x="640.5" y="1660.8013">продажа по карте</text><text fill="#000000" font-family="DejaVu Sans" font-size="13" lengthAdjust="spacingAndGlyphs" textLength="214" x="595" y="1675.9341">(чек, сумма, списание бонусов),</text><text fill="#000000" font-family="DejaVu Sans" font-size="13" lengthAdjust="spacingAndGlyphs" textLength="32" x="688" y="1691.0669">REST</text><polygon fill="#A80036" points="1120.5,1721.2656,1130.5,1725.2656,1120.5,1729.2656,1124.5,1725.2656" style="stroke: #A80036; stroke-width: 1.0;"/><line style="stroke: #A80036; stroke-width: 1.0;" x1="825" x2="1126.5" y1="1725.2656" y2="1725.2656"/><text fill="#000000" font-family="DejaVu Sans" font-size="13" font-weight="bold" lengthAdjust="spacingAndGlyphs" textLength="18" x="898.25" y="1720.1997">31</text><text fill="#000000" font-family="DejaVu Sans" font-size="13" lengthAdjust="spacingAndGlyphs" textLength="139" x="920.25" y="1720.1997">применить продажу</text><path d="M521.5,1740.2656 L585.5,1740.2656 L585.5,1747.2656 L575.5,1757.2656 L521.5,1757.2656 L521.5,1740.2656 " fill="#EEEEEE" style="stroke: #000000; stroke-width: 1.0;"/><rect fill="none" height="300.2656" style="stroke: #000000; stroke-width: 2.0;" width="902.5" x="521.5" y="1740.2656"/><text fill="#000000" font-family="DejaVu Sans" font-size="13" font-weight="bold" lengthAdjust="spacingAndGlyphs" textLength="19" x="536.5" y="1753.3325">alt</text><text fill="#000000" font-family="DejaVu Sans" font-size="11" font-weight="bold" lengthAdjust="spacingAndGlyphs" textLength="97" x="600.5" y="1752.4761">[CRM приняла]</text><line style="stroke: #A80036; stroke-width: 1.0;" x1="1132.5" x2="1174.5" y1="1778.5313" y2="1778.5313"/><line style="stroke: #A80036; stroke-width: 1.0;" x1="1174.5" x2="1174.5" y1="1778.5313" y2="1791.5313"/><line style="stroke: #A80036; stroke-width: 1.0;" x1="1133.5" x2="1174.5" y1="1791.5313" y2="1791.5313"/><polygon fill="#A80036" points="1143.5,1787.5313,1133.5,1791.5313,1143.5,1795.5313,1139.5,1791.5313" style="stroke: #A80036; stroke-width: 1.0;"/><text fill="#000000" font-family="DejaVu Sans" font-size="13" font-weight="bold" lengthAdjust="spacingAndGlyphs" textLength="18" x="1139.5" y="1773.4653">32</text><text fill="#000000" font-family="DejaVu Sans" font-size="13" lengthAdjust="spacingAndGlyphs" textLength="195" x="1161.5" y="1773.4653">списать и начислить бонусы</text><polygon fill="#A80036" points="1362.5,1816.6641,1372.5,1820.6641,1362.5,1824.6641,1366.5,1820.6641" style="stroke: #A80036; stroke-width: 1.0;"/><line style="stroke: #A80036; stroke-width: 1.0;" x1="1132.5" x2="1368.5" y1="1820.6641" y2="1820.6641"/><text fill="#000000" font-family="DejaVu Sans" font-size="13" font-weight="bold" lengthAdjust="spacingAndGlyphs" textLength="18" x="1144.5" y="1815.5981">33</text><text fill="#000000" font-family="DejaVu Sans" font-size="13" lengthAdjust="spacingAndGlyphs" textLength="196" x="1166.5" y="1815.5981">записать покупку в историю</text><polygon fill="#A80036" points="1143.5,1828.6641,1133.5,1832.6641,1143.5,1836.6641,1139.5,1832.6641" style="stroke: #A80036; stroke-width: 1.0;"/><line style="stroke: #A80036; stroke-width: 1.0; stroke-dasharray: 2.0,2.0;" x1="1137.5" x2="1373.5" y1="1832.6641" y2="1832.6641"/><text fill="#000000" font-family="DejaVu Sans" font-size="13" font-weight="bold" lengthAdjust="spacingAndGlyphs" textLength="18" x="1235" y="1845.731">34</text><text fill="#000000" font-family="DejaVu Sans" font-size="13" lengthAdjust="spacingAndGlyphs" textLength="15" x="1257" y="1845.731">ok</text><polygon fill="#A80036" points="836,1857.7969,826,1861.7969,836,1865.7969,832,1861.7969" style="stroke: #A80036; stroke-width: 1.0;"/><line style="stroke: #A80036; stroke-width: 1.0; stroke-dasharray: 2.0,2.0;" x1="830" x2="1131.5" y1="1861.7969" y2="1861.7969"/><text fill="#000000" font-family="DejaVu Sans" font-size="13" font-weight="bold" lengthAdjust="spacingAndGlyphs" textLength="18" x="921.25" y="1874.8638">35</text><text fill="#000000" font-family="DejaVu Sans" font-size="13" lengthAdjust="spacingAndGlyphs" textLength="93" x="943.25" y="1874.8638">новый баланс</text><polygon fill="#A80036" points="572,1886.9297,562,1890.9297,572,1894.9297,568,1890.9297" style="stroke: #A80036; stroke-width: 1.0;"/><line style="stroke: #A80036; stroke-width: 1.0; stroke-dasharray: 2.0,2.0;" x1="566" x2="824" y1="1890.9297" y2="1890.9297"/><text fill="#000000" font-family="DejaVu Sans" font-size="13" font-weight="bold" lengthAdjust="spacingAndGlyphs" textLength="18" x="625.5" y="1903.9966">36</text><text fill="#000000" font-family="DejaVu Sans" font-size="13" lengthAdjust="spacingAndGlyphs" textLength="113" x="647.5" y="1903.9966">подтверждение</text><line style="stroke: #000000; stroke-width: 1.0; stroke-dasharray: 2.0,2.0;" x1="521.5" x2="1424" y1="1917.0625" y2="1917.0625"/><text fill="#000000" font-family="DejaVu Sans" font-size="11" font-weight="bold" lengthAdjust="spacingAndGlyphs" textLength="119" x="526.5" y="1927.2729">[CRM недоступна]</text><polygon fill="#A80036" points="572,1930.8672,562,1934.8672,572,1938.8672,568,1934.8672" style="stroke: #A80036; stroke-width: 1.0;"/><line style="stroke: #A80036; stroke-width: 1.0; stroke-dasharray: 2.0,2.0;" x1="566" x2="824" y1="1934.8672" y2="1934.8672"/><text fill="#000000" font-family="DejaVu Sans" font-size="13" font-weight="bold" lengthAdjust="spacingAndGlyphs" textLength="18" x="656.5" y="1947.9341">37</text><text fill="#000000" font-family="DejaVu Sans" font-size="13" lengthAdjust="spacingAndGlyphs" textLength="51" x="678.5" y="1947.9341">ошибка</text><path d="M566,1965 L566,2035 L810,2035 L810,1975 L800,1965 L566,1965 " fill="#FBFB77" style="stroke: #A80036; stroke-width: 1.0;"/><path d="M800,1965 L800,1975 L810,1975 L800,1965 " fill="#FBFB77" style="stroke: #A80036; stroke-width: 1.0;"/><text fill="#000000" font-family="DejaVu Sans" font-size="13" lengthAdjust="spacingAndGlyphs" textLength="176" x="572" y="1982.0669">Повторной отправки нет.</text><text fill="#000000" font-family="DejaVu Sans" font-size="13" lengthAdjust="spacingAndGlyphs" textLength="209" x="572" y="1997.1997">Бонусы не начислены, уровень</text><text fill="#000000" font-family="DejaVu Sans" font-size="13" lengthAdjust="spacingAndGlyphs" textLength="187" x="572" y="2012.3325">и баланс в CRM расходятся</text><text fill="#000000" font-family="DejaVu Sans" font-size="13" lengthAdjust="spacingAndGlyphs" textLength="223" x="572" y="2027.4653">с реальными покупками клиента</text><path d="M43,2059.5313 L43,2114.5313 L1488,2114.5313 L1488,2069.5313 L1478,2059.5313 L43,2059.5313 " fill="#FBFB77" style="stroke: #A80036; stroke-width: 1.0;"/><path d="M1478,2059.5313 L1478,2069.5313 L1488,2069.5313 L1478,2059.5313 " fill="#FBFB77" style="stroke: #A80036; stroke-width: 1.0;"/><text fill="#000000" font-family="DejaVu Sans" font-size="13" lengthAdjust="spacingAndGlyphs" textLength="476" x="523" y="2076.5981">Итог AS-IS. Все обмены синхронные, событий нет, кэша на кассе нет.</text><text fill="#000000" font-family="DejaVu Sans" font-size="13" lengthAdjust="spacingAndGlyphs" textLength="454" x="523" y="2091.731">Скорость продажи зависит от CRM, а при сбоях данные о бонусах</text><text fill="#000000" font-family="DejaVu Sans" font-size="13" lengthAdjust="spacingAndGlyphs" textLength="358" x="523" y="2106.8638">и уровне лояльности клиента рассинхронизируются</text><!--
@startuml sales_sequence_UML_AS_IS

skinparam shadowing false
skinparam defaultFontName DejaVu Sans
skinparam sequenceMessageAlign center
skinparam responseMessageBelowArrow true
skinparam maxMessageSize 230
autonumber

title RetailMax — CRM\nUML Sequence Diagram (AS-IS)\nПрименение и начисление бонусов при оффлайн-продаже


actor "Покупатель" as Customer
actor "Старший продавец\nмагазина" as Seller
participant "POS\n(IS-04)" as POS
participant "Integration Platform\n(IS-07)" as IP

box "CRM (IS-02)" #F3F6FA
  participant "Customer\nManagement" as CM
  participant "Loyalty\nProgram" as LP
  participant "Purchase\nHistory" as PH
end box

participant "ERP\n(IS-01)" as ERP


== Сканирование товаров ==

Customer -> Seller : передает товары и карту лояльности
Seller -> POS : сканирует товары
POS -> IP : запрос цены и акций
IP -> ERP : запрос цены
ERP - -> IP : цена
IP - -> POS : цена и действующие акции


== Проверка карты лояльности (синхронно, INT-02) ==

opt есть карта лояльности
  Seller -> POS : сканирует карту
  activate POS
  POS -> IP : запрос бонусов и скидок\n(номер карты), REST
  activate IP
  IP -> CM : найти клиента по карте
  CM - -> IP : данные клиента
  IP -> LP : запрос баланса\nи персональной скидки

  alt CRM ответила
    LP - -> IP : баланс бонусов, скидка
    IP - -> POS : баланс бонусов, скидка
    POS - -> Seller : скидка и доступные бонусы
    Seller -> Customer : предлагает списать бонусы
    Customer - -> Seller : согласие или отказ
  else CRM недоступна или отвечает медленно
    note over LP
      Ответа нет. Таймаута
      и кэша на кассе нет
    end note
    Seller -> Seller : ждет ответа
    Customer -> Customer : ждет у кассы
    IP - -> POS : ошибка
    POS - -> Seller : бонусы недоступны
    note right of POS
      Проблема AS-IS (INT-02, BP-01).
      Продажа стоит, пока ждут CRM,
      время обслуживания растет.
      Если CRM не ответила, покупка
      проходит без бонусов
    end note
  end
  deactivate IP
  deactivate POS
end


== Оплата и фиксация продажи ==

Customer -> Seller : оплачивает покупку
Seller -> POS : закрыть чек
POS -> POS : оформить чек
POS - -> Customer : чек

POS -> IP : факт продажи, REST
IP -> ERP : факт продажи (INT-01)

alt ERP приняла
  ERP - -> IP : ok
  ERP -> ERP : уменьшить остатки
else ошибка или высокая нагрузка
  ERP - -> IP : ошибка
  note right of ERP
    Проблема AS-IS (INT-01).
    Повторной отправки нет,
    продажа в ERP теряется
  end note
end


== Списание и начисление бонусов ==

opt продажа по карте лояльности
  POS -> IP : продажа по карте\n(чек, сумма, списание бонусов), REST
  IP -> LP : применить продажу

  alt CRM приняла
    LP -> LP : списать и начислить бонусы
    LP -> PH : записать покупку в историю
    PH - -> LP : ok
    LP - -> IP : новый баланс
    IP - -> POS : подтверждение
  else CRM недоступна
    IP - -> POS : ошибка
    note right of POS
      Повторной отправки нет.
      Бонусы не начислены, уровень
      и баланс в CRM расходятся
      с реальными покупками клиента
    end note
  end
end

note over Customer, ERP
  Итог AS-IS. Все обмены синхронные, событий нет, кэша на кассе нет.
  Скорость продажи зависит от CRM, а при сбоях данные о бонусах
  и уровне лояльности клиента рассинхронизируются
end note

@enduml

PlantUML version 1.2019.06(Fri May 24 20:10:25 MSK 2019)
(GPL source distribution)
Java Runtime: OpenJDK Runtime Environment
JVM: OpenJDK 64-Bit Server VM
Java Version: 21.0.12.1+1-1-24.04.4-Ubuntu
Operating System: Linux
OS Version: 6.18.44-fc-v77
Default Encoding: UTF-8
Language: en
Country: US
--></g></svg>